<?xml version="1.0" standalone="no"?>
<!DOCTYPE svg PUBLIC "-//W3C//DTD SVG 20010904//EN"
 "http://www.w3.org/TR/2001/REC-SVG-20010904/DTD/svg10.dtd">
<svg version="1.0" xmlns="http://www.w3.org/2000/svg"
 width="2205.000000pt" height="2205.000000pt" viewBox="0 0 2205.000000 2205.000000"
 preserveAspectRatio="xMidYMid meet">

<g transform="translate(0.000000,2205.000000) scale(0.100000,-0.100000)"
fill="#000000" stroke="none">
<path d="M10605 22044 c-772 -39 -1354 -116 -2030 -269 -2759 -627 -5192
-2318 -6761 -4700 -1343 -2040 -1967 -4461 -1778 -6900 176 -2279 1057 -4441
2525 -6199 381 -456 881 -961 1334 -1347 1834 -1563 4129 -2477 6550 -2609
245 -13 915 -13 1160 0 2438 133 4745 1058 6585 2639 328 282 758 702 1030
1006 2205 2462 3188 5718 2709 8975 -168 1142 -520 2262 -1035 3292 -1300
2601 -3574 4593 -6312 5529 -902 308 -1804 490 -2802 564 -191 15 -1004 28
-1175 19z m951 -964 c99 -6 258 -17 354 -26 3042 -263 5814 -1917 7511 -4481
409 -619 762 -1307 1022 -1993 352 -928 552 -1857 629 -2915 20 -273 17 -1062
-5 -1345 -36 -465 -88 -846 -172 -1268 -354 -1766 -1157 -3367 -2379 -4742
-154 -173 -592 -611 -766 -766 -712 -636 -1441 -1129 -2290 -1548 -1207 -598
-2444 -924 -3850 -1018 -238 -15 -932 -15 -1170 0 -1425 95 -2660 424 -3890
1038 -595 298 -1042 574 -1575 974 -2124 1595 -3544 3993 -3914 6610 -74 523
-96 848 -96 1430 0 470 7 619 46 1010 309 3144 2121 5991 4854 7627 1405 842
2950 1315 4605 1412 202 12 883 12 1086 1z"/>
<path d="M10875 20525 c-4 -12 -45 -1388 -42 -1392 1 -1 52 -3 112 -4 l110 -2
6 164 c3 90 7 210 8 267 l1 102 154 0 c114 0 156 -3 164 -13 6 -7 68 -123 138
-258 69 -134 132 -254 140 -266 14 -22 21 -23 129 -23 63 0 115 3 115 6 0 4
-65 129 -145 279 -80 150 -145 275 -145 278 0 3 25 19 56 37 249 140 306 469
117 671 -57 61 -97 88 -178 119 -52 19 -89 23 -270 31 -378 15 -467 16 -470 4z
m680 -235 c112 -54 156 -188 101 -305 -28 -60 -46 -77 -111 -106 -48 -21 -58
-22 -254 -16 -112 4 -206 9 -208 11 -3 2 -1 104 3 227 l7 222 208 -5 c188 -5
213 -8 254 -28z"/>
<path d="M9765 20437 c-280 -39 -512 -72 -514 -74 -5 -3 17 -194 22 -199 1 -1
94 10 207 26 112 16 205 28 207 27 1 -1 38 -267 82 -591 45 -324 83 -591 84
-593 5 -5 207 24 214 30 3 3 -31 270 -76 593 -44 324 -79 590 -77 591 1 2 95
16 207 31 162 22 204 31 202 42 -15 129 -27 190 -37 189 -6 -1 -240 -33 -521
-72z"/>
<path d="M12380 20446 c1 -6 72 -227 158 -491 l158 -480 -49 -243 c-27 -134
-46 -246 -43 -249 6 -6 172 -42 197 -43 13 0 25 48 65 243 l49 242 86 100 c48
56 200 231 338 390 138 159 248 292 244 295 -13 12 -227 50 -233 42 -20 -23
-484 -558 -490 -565 -4 -5 -60 153 -125 350 -64 197 -121 362 -125 367 -14 15
-230 55 -230 42z"/>
<path d="M8415 20165 c-176 -32 -315 -125 -382 -255 -25 -49 -28 -65 -28 -155
0 -93 2 -105 33 -167 42 -86 110 -149 195 -178 54 -19 93 -23 292 -30 282 -10
325 -22 367 -103 29 -59 22 -142 -18 -200 -31 -44 -113 -100 -174 -118 -19 -6
-73 -13 -121 -16 -92 -6 -173 10 -238 48 -18 11 -35 19 -36 17 -1 -2 -23 -42
-48 -89 l-47 -86 48 -25 c178 -97 414 -95 618 4 79 38 171 119 208 183 108
183 39 448 -141 543 -60 32 -144 44 -363 51 -252 8 -278 14 -328 79 -56 74
-25 188 67 246 94 60 244 72 343 28 l48 -21 46 86 c45 82 46 87 29 99 -32 24
-124 54 -193 64 -81 12 -89 11 -177 -5z"/>
<path d="M14736 19782 c-115 -226 -586 -1236 -579 -1243 14 -14 532 -259 592
-280 81 -28 165 -34 244 -15 92 22 141 49 207 115 77 76 104 145 104 261 0 83
-7 108 -60 225 -2 6 19 19 48 30 38 13 71 36 115 80 52 52 64 72 82 129 12 38
21 85 21 105 0 58 -28 151 -63 210 -63 105 -86 119 -575 351 l-122 59 -14 -27z
m298 -323 c167 -79 210 -108 237 -159 61 -114 -35 -270 -165 -270 -38 0 -80
15 -219 81 -95 45 -174 83 -176 85 -7 6 152 334 162 334 5 0 78 -32 161 -71z
m-227 -514 c98 -46 194 -98 214 -114 99 -82 102 -235 7 -330 -48 -48 -122 -75
-183 -65 -37 5 -410 175 -410 186 0 6 189 408 192 408 1 0 82 -38 180 -85z"/>
<path d="M7197 19719 l-98 -50 200 -397 c110 -218 205 -415 210 -437 39 -148
-31 -326 -159 -403 -74 -44 -121 -55 -215 -50 -62 4 -93 11 -137 33 -110 54
-128 80 -349 514 -111 218 -203 398 -205 400 -3 3 -49 -17 -104 -44 l-100 -49
201 -396 c111 -217 217 -416 236 -442 167 -230 489 -296 758 -155 134 71 255
230 291 383 21 89 14 236 -14 316 -17 46 -409 829 -415 827 -1 0 -46 -22 -100
-50z"/>
<path d="M15866 18443 c-219 -306 -399 -563 -400 -571 -1 -16 801 -595 814
-587 11 7 98 129 105 147 4 10 -100 89 -309 239 -174 123 -316 228 -316 232 0
4 55 84 121 176 l122 169 242 -174 c133 -96 246 -174 251 -174 10 1 114 144
114 157 0 4 -111 86 -245 182 -159 113 -242 178 -236 185 4 6 52 73 105 148
62 87 102 135 109 131 7 -4 146 -103 311 -221 164 -117 302 -212 306 -210 5 2
34 38 64 80 l55 77 -399 286 c-219 157 -402 285 -407 285 -5 0 -188 -251 -407
-557z"/>
<path d="M10780 18674 c-176 -7 -421 -26 -595 -45 -2195 -239 -4187 -1430
-5455 -3263 -730 -1054 -1186 -2292 -1315 -3566 -43 -434 -46 -1076 -6 -1484
208 -2098 1224 -3970 2869 -5280 2026 -1613 4749 -2086 7205 -1250 1232 420
2336 1148 3215 2119 1170 1295 1853 2919 1962 4670 22 346 11 858 -25 1220
-107 1060 -443 2107 -971 3026 -868 1511 -2226 2686 -3839 3324 -724 286
-1488 458 -2285 514 -159 11 -625 20 -760 15z m820 -979 c387 -36 702 -88
1050 -175 1612 -403 3034 -1412 3955 -2805 110 -166 295 -474 295 -491 0 -5
-452 -461 -1005 -1014 l-1005 -1005 0 535 0 535 -1935 1935 -1935 1935 -1930
-1930 -1930 -1930 -2 -3857 -3 -3858 -136 103 c-994 745 -1761 1750 -2222
2907 -462 1163 -583 2483 -341 3725 341 1748 1369 3292 2855 4286 447 299 945
551 1446 733 561 203 1172 334 1763 376 85 6 178 12 205 14 115 9 721 -5 875
-19z m2140 -5760 l0 -880 -1182 -1182 -1183 -1183 -900 900 -900 900 -405
-405 -405 -405 1305 -1305 1305 -1305 3007 3007 c1654 1654 3009 3005 3012
3003 9 -10 97 -321 135 -480 267 -1105 247 -2270 -55 -3360 -393 -1415 -1252
-2671 -2434 -3561 l-145 -110 -5 1701 -5 1700 -573 -568 -573 -567 1 -572 0
-573 -2720 0 -2720 0 0 3057 0 3058 1362 1362 1363 1363 1357 -1357 1358
-1358 0 -880z m1054 -6433 c-446 -306 -967 -574 -1477 -761 -552 -202 -1081
-319 -1732 -383 -176 -17 -944 -17 -1120 0 -651 64 -1180 181 -1732 383 -509
186 -1073 478 -1491 770 l-55 39 3838 0 3839 0 -70 -48z"/>
<path d="M5405 18575 c-76 -17 -157 -48 -217 -86 -46 -28 -458 -347 -458 -355
0 -3 841 -1076 859 -1096 12 -13 451 342 504 407 58 72 119 196 141 286 23 95
21 256 -4 347 -86 311 -356 513 -680 511 -47 0 -112 -7 -145 -14z m260 -210
c87 -23 153 -62 225 -135 192 -193 201 -489 20 -682 -25 -26 -94 -86 -155
-133 -85 -65 -112 -82 -121 -72 -30 33 -594 756 -596 765 -4 12 230 195 284
223 94 48 234 62 343 34z"/>
<path d="M17378 17877 c-106 -45 -186 -133 -219 -240 -36 -116 -12 -213 102
-422 90 -165 109 -213 109 -278 0 -143 -158 -218 -298 -142 -71 38 -156 131
-192 207 -32 68 -55 167 -47 205 4 23 4 23 -101 23 l-105 0 6 -82 c12 -167 76
-299 206 -429 177 -176 360 -221 539 -133 73 36 156 120 190 191 23 50 27 70
26 143 -1 104 -23 165 -124 349 -81 148 -100 197 -100 261 0 124 130 188 257
125 99 -50 179 -166 191 -279 l7 -61 100 0 100 0 -3 60 c-7 137 -62 255 -172
366 -56 56 -96 86 -154 114 -71 35 -87 39 -170 42 -78 3 -99 0 -148 -20z"/>
<path d="M4097 17519 c-37 -43 -67 -83 -67 -87 0 -5 169 -152 375 -327 206
-175 373 -320 371 -322 -4 -4 -1042 41 -1183 51 l-72 6 -61 -72 c-33 -39 -60
-74 -60 -78 0 -5 943 -810 1039 -887 l27 -22 72 86 71 85 -107 91 c-60 51
-230 196 -379 322 -150 127 -265 231 -258 233 14 3 1092 -43 1198 -51 l48 -4
59 69 c33 38 60 73 60 78 0 7 -1024 883 -1055 902 -6 4 -39 -26 -78 -73z"/>
<path d="M18383 16994 c-40 -30 -73 -56 -73 -59 0 -3 54 -78 120 -168 66 -89
119 -165 117 -169 -1 -4 -213 -163 -472 -353 -258 -191 -473 -350 -477 -354
-12 -11 115 -182 130 -176 8 3 224 160 480 349 257 190 471 345 475 346 5 1
64 -73 132 -165 l122 -166 82 61 c59 44 80 65 73 73 -5 7 -145 197 -311 422
-166 226 -307 411 -314 412 -7 1 -45 -22 -84 -53z"/>
<path d="M2946 16001 c-31 -48 -56 -92 -56 -97 1 -6 1045 -661 1175 -736 9 -6
30 20 69 82 31 50 56 94 56 98 0 5 -946 597 -1151 720 l-37 22 -56 -89z"/>
<path d="M15692 3797 c-18 -11 -31 -25 -29 -31 3 -6 75 -123 161 -260 86 -137
154 -251 152 -254 -3 -2 -167 58 -365 133 l-361 136 -31 -21 c-27 -20 -29 -24
-16 -44 8 -11 100 -159 206 -328 106 -170 195 -308 198 -308 3 0 21 9 39 21
l33 20 -38 62 c-203 322 -289 462 -287 464 1 1 162 -58 357 -132 195 -74 361
-135 370 -135 9 0 27 8 40 19 l23 18 -20 34 c-61 103 -378 606 -388 615 -8 8
-20 6 -44 -9z"/>
<path d="M6339 3787 c-120 -41 -190 -104 -242 -216 -58 -123 -47 -274 29 -388
87 -133 262 -206 417 -173 l58 12 -6 31 c-10 45 -15 48 -60 36 -51 -14 -144
-5 -201 20 -63 28 -138 103 -165 164 -34 78 -33 183 4 259 104 212 361 258
521 93 45 -46 86 -132 86 -180 0 -21 5 -25 28 -25 45 0 56 13 48 56 -15 77
-48 145 -98 199 -108 118 -275 163 -419 112z"/>
<path d="M7169 3307 c-88 -30 -143 -70 -195 -140 -57 -77 -79 -143 -79 -242 0
-97 22 -166 74 -235 83 -110 186 -163 321 -164 102 -1 168 19 240 73 221 166
225 487 7 647 -110 82 -243 104 -368 61z m264 -93 c72 -35 121 -86 152 -157
24 -53 27 -69 23 -141 -5 -93 -26 -143 -90 -212 -115 -125 -308 -132 -441 -15
-20 18 -51 61 -68 97 -29 59 -31 69 -27 146 3 63 11 95 30 133 83 161 267 226
421 149z"/>
<path d="M14647 3210 c-185 -47 -320 -232 -304 -419 8 -102 40 -172 109 -246
166 -178 421 -177 588 1 190 204 123 522 -136 641 -65 30 -186 40 -257 23z
m244 -111 c104 -56 160 -148 167 -277 4 -77 2 -87 -27 -146 -36 -74 -83 -119
-159 -154 -47 -21 -64 -24 -141 -20 -72 3 -95 9 -133 31 -183 107 -225 358
-85 505 100 105 250 129 378 61z"/>
<path d="M8085 2979 c-155 -432 -256 -722 -253 -725 2 -2 20 -10 40 -18 l36
-15 42 117 c134 379 165 462 170 462 3 0 57 -165 120 -366 l115 -367 34 -14
c18 -8 37 -11 41 -6 5 6 180 494 257 719 5 15 -66 40 -77 28 -4 -5 -52 -134
-106 -286 -55 -153 -101 -278 -104 -278 -3 0 -32 82 -64 183 -167 529 -176
555 -194 560 -9 2 -25 8 -34 12 -11 4 -20 2 -23 -6z"/>
<path d="M13890 2889 c-13 -5 -26 -11 -27 -13 -3 -3 255 -727 261 -733 6 -7
76 22 76 31 0 6 -57 171 -128 366 -84 235 -132 356 -142 357 -8 1 -26 -3 -40
-8z"/>
<path d="M13360 2721 c-129 -37 -248 -71 -263 -75 -26 -6 -28 -10 -22 -39 4
-18 10 -35 14 -39 3 -4 57 7 119 24 61 17 114 30 116 27 3 -2 46 -153 97 -334
50 -182 93 -331 94 -333 2 -2 22 2 44 8 37 10 41 14 35 33 -25 79 -183 652
-180 655 2 1 53 17 112 33 60 17 110 32 112 34 2 2 0 19 -3 39 -5 25 -12 36
-24 35 -9 -1 -122 -31 -251 -68z"/>
<path d="M9056 2646 c-91 -34 -140 -104 -141 -197 0 -96 23 -120 251 -263 50
-31 84 -77 84 -114 0 -42 -37 -98 -76 -117 -90 -42 -253 16 -300 107 l-14 28
-34 -22 c-32 -21 -33 -24 -21 -48 21 -40 101 -109 153 -133 66 -29 188 -35
247 -13 108 42 162 184 109 287 -19 37 -69 79 -164 135 -94 56 -150 112 -150
150 0 41 30 93 64 111 19 10 53 17 87 17 66 -1 132 -34 173 -86 25 -33 26 -33
53 -16 15 9 29 23 31 30 4 23 -78 99 -136 126 -67 30 -161 38 -216 18z"/>
<path d="M12572 2549 c-118 -23 -233 -113 -288 -224 -27 -55 -29 -69 -29 -170
0 -104 2 -114 33 -177 98 -200 334 -282 537 -187 90 42 206 169 174 190 -47
32 -53 32 -68 8 -37 -56 -77 -91 -139 -121 -56 -28 -76 -32 -141 -32 -100 -1
-164 27 -230 100 -61 66 -85 132 -85 231 1 91 34 163 105 227 60 54 121 76
210 76 78 0 140 -19 190 -60 l36 -29 23 31 22 30 -21 22 c-44 47 -184 98 -259
95 -15 -1 -46 -5 -70 -10z"/>
<path d="M9615 2508 c-4 -22 -5 -40 -3 -42 1 -1 54 -10 117 -19 63 -9 116 -18
118 -20 2 -2 -20 -158 -48 -346 -29 -188 -50 -343 -48 -345 2 -2 22 -6 44 -8
l39 -3 52 345 c29 190 53 345 53 346 1 0 53 -8 117 -18 65 -10 119 -17 121
-14 2 2 6 20 10 39 7 43 35 35 -287 82 -135 20 -253 37 -262 39 -13 3 -18 -6
-23 -36z"/>
<path d="M10435 2427 c-2 -7 -11 -163 -20 -347 -8 -184 -16 -355 -18 -380 l-2
-45 43 -3 c29 -2 42 1 42 10 4 97 19 290 23 295 3 3 53 2 110 -2 l104 -7 78
-158 77 -158 46 -6 c25 -3 47 -4 49 -2 2 2 -32 77 -77 166 -45 89 -80 163 -78
164 2 1 24 15 50 30 87 49 134 159 109 254 -31 117 -99 168 -243 182 -181 17
-289 19 -293 7z m374 -105 c56 -27 76 -63 76 -137 0 -74 -20 -109 -78 -138
-32 -16 -52 -17 -171 -11 l-136 7 6 91 c2 50 7 119 10 154 l6 63 126 -6 c86
-5 138 -12 161 -23z"/>
<path d="M11831 2408 c0 -18 6 -132 13 -252 16 -268 9 -313 -61 -377 -89 -83
-214 -88 -302 -12 -82 70 -89 100 -106 486 l-8 157 -43 0 -44 0 0 -42 c1 -147
30 -488 45 -530 23 -65 94 -141 163 -175 48 -24 70 -28 137 -28 67 0 89 4 137
28 71 35 130 101 159 176 20 52 21 68 15 221 -3 91 -9 213 -12 273 l-7 107
-44 0 c-42 0 -43 -1 -42 -32z"/>
</g>
</svg>
